name C:\Users\u0101727\Documents\MyRepositories\paper-ad\predictivesimulations_2d/Results/PredSim_2D/IK_c20.mot
datacolumns 11
datarows 47
range 1.27593409 1.71723460
endheader
time	pelvis_tilt	pelvis_tx	pelvis_ty	hip_flexion_l	hip_flexion_r	knee_angle_l	knee_angle_r	ankle_angle_l	ankle_angle_r	lumbar_extension	
          1.27593409	        -15.15575414	          1.69368299	          0.90058238	         33.23807880	         10.42438052	        -37.56601298	         -7.30170703	         15.70287416	         11.29323291	          9.48759413	
          1.28552758	        -15.15508003	          1.70566993	          0.89972562	         34.20635815	          9.64874217	        -36.09310644	         -7.34936404	         15.98892515	         11.30333775	          9.44770479	
          1.29512107	        -15.15549185	          1.71771221	          0.89881070	         35.11353114	          8.89071623	        -34.50353198	         -7.43265858	         16.19404922	         11.30132780	          9.41105934	
          1.30471456	        -15.15738118	          1.72981632	          0.89783640	         35.95614150	          8.14924304	        -32.80504033	         -7.55051363	         16.32737104	         11.29078864	          9.37796726	
          1.31430805	        -15.16106923	          1.74199042	          0.89680157	         36.72961196	          7.42397281	        -31.00905956	         -7.70322533	         16.39767437	         11.27250066	          9.34881529	
          1.32390154	        -15.16662147	          1.75424653	          0.89570888	         37.42726721	          6.71581472	        -29.14174940	         -7.89449651	         16.41310133	         11.24481337	          9.32419226	
          1.33349503	        -15.17406046	          1.76660295	          0.89457084	         38.03619174	          6.02680329	        -27.23732298	         -8.13058386	         16.38093597	         11.20165899	          9.30540301	
          1.34308851	        -15.18340246	          1.77908127	          0.89340921	         38.54058109	          5.36011362	        -25.32801068	         -8.41865175	         16.30756871	         11.13059291	          9.29417370	
          1.35268200	        -15.19432687	          1.79170033	          0.89224652	         38.93097267	          4.72016692	        -23.44169328	         -8.76719390	         16.19838767	         11.01531294	          9.29169572	
          1.36227549	        -15.20603612	          1.80447473	          0.89110072	         39.20719264	          4.11224496	        -21.60025626	         -9.18609304	         16.05751954	         10.83928010	          9.29837543	
          1.37186898	        -15.21731907	          1.81741733	          0.88998610	         39.37612177	          3.54162304	        -19.82538827	         -9.68564614	         15.88756905	         10.58823603	          9.31414178	
          1.38146247	        -15.22695926	          1.83054200	          0.88891480	         39.44497929	          3.01316764	        -18.13191106	        -10.27549582	         15.68973981	         10.24934931	          9.33908679	
          1.39105596	        -15.23381555	          1.84386316	          0.88789597	         39.42057047	          2.53132137	        -16.53155385	        -10.96421968	         15.46393792	          9.81047122	          9.37344835	
          1.40064945	        -15.23663479	          1.85739501	          0.88693486	         39.31048451	          2.10070244	        -15.04134028	        -11.76081799	         15.20888588	          9.26076179	          9.41736597	
          1.41024294	        -15.23415398	          1.87115194	          0.88603255	         39.11976231	          1.72683012	        -13.67582099	        -12.67558149	         14.92256771	          8.58925723	          9.47113278	
          1.41983643	        -15.22496758	          1.88514755	          0.88518474	         38.85319683	          1.41561111	        -12.45492685	        -13.71943766	         14.60210211	          7.78553310	          9.53499983	
          1.42942992	        -15.20751869	          1.89939359	          0.88438028	         38.51614777	          1.17269721	        -11.40745575	        -14.90258277	         14.24368559	          6.84209789	          9.60911686	
          1.43902341	        -15.18036851	          1.91390113	          0.88360009	         38.10893520	          1.00287226	        -10.56426336	        -16.23430474	         13.84294679	          5.75899749	          9.69407578	
          1.44861690	        -15.14232924	          1.92867844	          0.88281262	         37.62452137	          0.90905550	         -9.95899323	        -17.72757902	         13.39489682	          4.55861456	          9.79093848	
          1.45821039	        -15.09324780	          1.94371919	          0.88197399	         37.04493019	          0.89397526	         -9.63979145	        -19.38833958	         12.89473449	          3.25446842	          9.90084641	
          1.46780388	        -15.03568220	          1.95900638	          0.88110763	         36.30207578	          0.96486870	         -9.72726298	        -21.21349422	         12.34038755	          1.82663844	         10.02777515	
          1.47739737	        -14.97784306	          1.97435412	          0.88034050	         35.43907922	          1.12636613	        -10.04164474	        -23.18446996	         11.77121045	          0.36054170	         10.16229593	
          1.48699086	        -14.93070656	          1.98942172	          0.87990220	         34.58114367	          1.40530416	        -10.32193054	        -25.20878866	         11.22115657	         -0.92245510	         10.28116970	
          1.49658434	        -14.90283030	          2.00396211	          0.88005472	         33.76554829	          1.82995316	        -10.58032720	        -27.14625810	         10.69009235	         -1.92441661	         10.37048539	
          1.50617783	        -14.89655074	          2.01791236	          0.88095398	         32.99475407	          2.39623667	        -10.81172816	        -28.93428950	         10.19265574	         -2.67467925	         10.42910230	
          1.51577132	        -14.90717550	          2.03135577	          0.88255914	         32.25023137	          3.08735751	        -11.00414437	        -30.59359705	          9.74513320	         -3.18268181	         10.46316129	
          1.52536481	        -14.92811069	          2.04441654	          0.88466027	         31.51085947	          3.88276767	        -11.14864821	        -32.15328804	          9.35901630	         -3.46117600	         10.47968195	
          1.53495830	        -14.95399606	          2.05720214	          0.88702468	         30.75983063	          4.76691567	        -11.23840773	        -33.63095075	          9.04056154	         -3.52572352	         10.48397770	
          1.54455179	        -14.98139541	          2.06978680	          0.88946960	         29.98770168	          5.72778084	        -11.27150431	        -35.03504916	          8.79137164	         -3.39133965	         10.47924237	
          1.55414528	        -15.00841423	          2.08221748	          0.89187141	         29.18995202	          6.75636189	        -11.24838186	        -36.36689553	          8.61041021	         -3.07431636	         10.46723058	
          1.56373877	        -15.03408872	          2.09452422	          0.89415085	         28.36503485	          7.84525529	        -11.17104607	        -37.62338751	          8.49502991	         -2.59138493	         10.44894945	
          1.57333226	        -15.05792986	          2.10672733	          0.89625755	         27.51332623	          8.98828196	        -11.04297866	        -38.79965380	          8.44147833	         -1.95940325	         10.42501563	
          1.58292575	        -15.07967012	          2.11884189	          0.89815905	         26.63647506	         10.17989095	        -10.86903404	        -39.88960902	          8.44520340	         -1.19531348	         10.39588152	
          1.59251924	        -15.09913738	          2.13088030	          0.89983440	         25.73708249	         11.41473848	        -10.65523452	        -40.88645914	          8.50106248	         -0.31628524	         10.36195280	
          1.60211273	        -15.11620583	          2.14285350	          0.90127095	         24.81844761	         12.68737580	        -10.40862481	        -41.78306434	          8.60345936	          0.66028471	         10.32364750	
          1.61170622	        -15.13078621	          2.15477092	          0.90246386	         23.88456488	         13.99247606	        -10.13722362	        -42.57179422	          8.74657117	          1.71682694	         10.28135110	
          1.62129971	        -15.14286705	          2.16664018	          0.90341642	         22.93985377	         15.32501422	         -9.84878476	        -43.24447696	          8.92452425	          2.83566651	         10.23538701	
          1.63089320	        -15.15257389	          2.17846860	          0.90413927	         21.98818485	         16.67897233	         -9.55036203	        -43.79363875	          9.13079527	          3.99898694	         10.18623661	
          1.64048669	        -15.16006751	          2.19026236	          0.90464947	         21.03376870	         18.04858059	         -9.24955029	        -44.21153473	          9.35768575	          5.18894725	         10.13431852	
          1.65008017	        -15.16548987	          2.20202698	          0.90496783	         20.08117793	         19.42834088	         -8.95419396	        -44.49035903	          9.59716515	          6.38773153	         10.07997543	
          1.65967366	        -15.16898782	          2.21376842	          0.90511582	         19.13521986	         20.81173911	         -8.67269169	        -44.62319786	          9.84131223	          7.57754823	         10.02358742	
          1.66926715	        -15.17078468	          2.22549373	          0.90511374	         18.19908452	         22.19189355	         -8.41056449	        -44.60438694	         10.08283395	          8.74073099	          9.96568796	
          1.67886064	        -15.17119944	          2.23721122	          0.90497973	         17.27356296	         23.56190832	         -8.16906317	        -44.42988028	         10.31511035	          9.85991204	          9.90702083	
          1.68845413	        -15.17051421	          2.24892964	          0.90472932	         16.36010554	         24.91386748	         -7.95108213	        -44.09768450	         10.53136378	         10.91834896	          9.84831777	
          1.69804762	        -15.16897557	          2.26065710	          0.90437562	         15.46086627	         26.23986809	         -7.76019100	        -43.60675051	         10.72555943	         11.90059471	          9.79019084	
          1.70764111	        -15.16682654	          2.27240272	          0.90392927	         14.57739623	         27.53105022	         -7.59938280	        -42.96019725	         10.89310297	         12.79323614	          9.73338111	
          1.71723460	        -15.16432521	          2.28417498	          0.90339933	         13.71063636	         28.77933647	         -7.47077183	        -42.16264828	         11.03105540	         13.58602357	          9.67858603	
